cover
 
http://img828.imageshack.us/img828/5103/covereka.jpg

                                                                    


¦¦¯_____________________________________________________________________¯¦¦  
¦¦                                                                       ¦¦  
¦¦                                                                       ¦¦  
                          
                                  
                   Encoded By .......:Xclusive                  
Runtime    .......:1:24:37
           IMDb URL .........:http://www.imdb.com/title/tt1477076/
    Language .........:English
    File Size ........:610mb
             
¦¦¦                                                                     ¦¦¦  
¦¦¦¦¦_______________________ Audio/Video _____________________________¦¦¦¦¦  
Video
ID                               : 0
Format                           : MPEG-4 Visual
Format profile                   : Simple@L3
Format settings, BVOP            : No
Format settings, QPel            : No
Format settings, GMC             : No warppoints
Format settings, Matrix          : Default (H.263)
Codec ID                         : XVID
Codec ID/Hint                    : XviD
Duration                         : 1h 24mn
Bit rate                         : 874 Kbps
Width                            : 706 pixels
Height                           : 336 pixels
Display aspect ratio             : 2.2:1
Frame rate                       : 25.000 fps
Color space                      : YUV
Chroma subsampling               : 4:2:0
Bit depth                        : 8 bits
Scan type                        : Progressive
Bits/(Pixel*Frame)               : 0.147
Stream size                      : 529 MiB (87%)
Writing library                  : XviD 1.2.1 (UTC 2008-12-04)

Audio
ID                               : 1
Format                           : MPEG Audio
Format version                   : Version 1
Format profile                   : Layer 3
Mode                             : Joint stereo
Mode extension                   : MS Stereo
Codec ID                         : 55
Codec ID/Hint                    : MP3
Duration                         : 1h 24mn
Bit rate mode                    : Constant
Bit rate                         : 128 Kbps
Channel(s)                       : 2 channels
Sampling rate                    : 48.0 KHz
Video delay                      : 20ms
Stream size                      : 77.5 MiB (13%)
Alignment                        : Split accross interleaves
Interleave, duration             : 500 ms (12.49 video frames)
Interleave, preload duration     : 500 ms

¦¦¯_____________________________________________________________________¯¦¦  
¦                          ¦¦¦  
¦¦¦¦¦_______________________             _____________________________¦¦¦¦¦  

¦¦¯_____________________________________________________________________¯¦¦  
¦¦        
          
                                                                         ¦¦  
¦¦                                                                       ¦¦  
          
. 
¦¦¦                                                                     ¦¦¦  
¦¦¦¦¦_______________________    Notes    _____________________________¦¦¦¦¦  
 
Video: Russian Cam thanks to IMAGINE and Boobies for getting it to us early

Audio:Own thanks to our Buddy XboxMySocks

Reason For Proper:previous releases are all runtime 1:22 missing beginning and Ending and bad crop

THis cam needed a lot of work bad interlace issues,coloring cropping

so did the best we could with it lowered contrast deinterlaced adjusted colors etc

Our audio was very good for a cam ran it through adobe lowered bass a bit raised vocals cleared light hiss etc and syncing wasn't that bad watchable cam not the best

Hopefully a better source shows up soon bad ass movie enjoy.
                 
¦¦¯_____________________________________________________________________¯¦¦  
¦¦   Have anything we can use? Contact us at      

      If you don't know how don't worry about it   
¦¦                                                                       ¦¦  

¦¦¦                                                                     ¦¦¦  
¦¦¦¦¦______________________ Greetz/Thanks ____________________________¦¦¦¦¦  

               Greetz to all other respected RG's out there .
            Let the Legend Killing Continue.



Plot: As a deadly battle rages over Jigsaw's brutal legacy, a group of Jigsaw survivors gathers to seek the support of self-help guru and fellow survivor Bobby Dagen, a man whose own dark secrets unleash a new wave of terror.

Cast: Tobin Bell ...
Jigsaw / John
Costas Mandylor Costas Mandylor ...
Hoffman
Betsy Russell Betsy Russell ...
Jill
Cary Elwes Cary Elwes ...
Dr. Gordon
Sean Patrick Flanery Sean Patrick Flanery ...
Bobby
Chad Donella Chad Donella ...
Gibson

Gina Holden Gina Holden ...
Joyce
Laurence Anthony Laurence Anthony ...
Rogers


screens
 
http://img72.imageshack.us/img72/4750/vlcsnap2010103108h30m48.png
 
http://img502.imageshack.us/img502/8553/vlcsnap2010103108h31m30.png
 
http://img227.imageshack.us/img227/870/vlcsnap2010103109h15m07.png
 
http://img295.imageshack.us/img295/6622/vlcsnap2010103109h15m50.png
 
http://img684.imageshack.us/img684/1144/vlcsnap2010103108h31m08.png


